<svg xmlns="http://www.w3.org/2000/svg" xmlns:xlink="http://www.w3.org/1999/xlink" width="151" zoomAndPan="magnify" viewBox="0 0 113.25 77.249999" height="103" preserveAspectRatio="xMidYMid meet" version="1.0"><defs><g/><clipPath id="e00653bea3"><path d="M 0.171875 19 L 34 19 L 34 47 L 0.171875 47 Z M 0.171875 19 " clip-rule="nonzero"/></clipPath><clipPath id="1228697a52"><path d="M 33 17 L 41.730469 17 L 41.730469 22 L 33 22 Z M 33 17 " clip-rule="nonzero"/></clipPath><clipPath id="b4087f59a2"><path d="M 3 58 L 34 58 L 34 66 L 3 66 Z M 3 58 " clip-rule="nonzero"/></clipPath><clipPath id="f1dc827984"><path d="M 13.675781 43.328125 L 34.976562 58.910156 L 23.375 74.773438 L 2.070312 59.191406 Z M 13.675781 43.328125 " clip-rule="nonzero"/></clipPath><clipPath id="948546ec5f"><path d="M 13.675781 43.328125 L 34.976562 58.910156 L 23.375 74.773438 L 2.070312 59.191406 Z M 13.675781 43.328125 " clip-rule="nonzero"/></clipPath><clipPath id="da9bb0bdd3"><path d="M 31 57 L 34 57 L 34 60 L 31 60 Z M 31 57 " clip-rule="nonzero"/></clipPath><clipPath id="48b6086a03"><path d="M 13.675781 43.328125 L 34.976562 58.910156 L 23.375 74.773438 L 2.070312 59.191406 Z M 13.675781 43.328125 " clip-rule="nonzero"/></clipPath><clipPath id="cd619a7673"><path d="M 13.675781 43.328125 L 34.976562 58.910156 L 23.375 74.773438 L 2.070312 59.191406 Z M 13.675781 43.328125 " clip-rule="nonzero"/></clipPath><clipPath id="381fa3b59c"><path d="M 2 57 L 5 57 L 5 60 L 2 60 Z M 2 57 " clip-rule="nonzero"/></clipPath><clipPath id="0b699c9b78"><path d="M 13.675781 43.328125 L 34.976562 58.910156 L 23.375 74.773438 L 2.070312 59.191406 Z M 13.675781 43.328125 " clip-rule="nonzero"/></clipPath><clipPath id="05a3ceeee8"><path d="M 13.675781 43.328125 L 34.976562 58.910156 L 23.375 74.773438 L 2.070312 59.191406 Z M 13.675781 43.328125 " clip-rule="nonzero"/></clipPath></defs><g clip-path="url(#e00653bea3)"><path fill="#414042" d="M 33.21875 19.722656 C 33.214844 19.699219 33.175781 19.667969 33.152344 19.671875 C 32.414062 19.742188 31.785156 20.246094 31.441406 20.890625 C 31.074219 21.59375 31.035156 22.410156 30.855469 23.171875 C 30.792969 23.496094 30.734375 23.824219 30.671875 24.148438 C 30.65625 24.214844 30.628906 24.238281 30.570312 24.242188 C 25.777344 24.269531 20.988281 24.25 16.199219 24.253906 C 11.527344 24.253906 6.855469 24.253906 2.183594 24.257812 C 1.265625 24.179688 0.410156 24.847656 0.257812 25.757812 C 0.179688 26.117188 0.242188 26.476562 0.355469 26.820312 C 1.703125 31.082031 3 35.359375 4.363281 39.617188 C 4.6875 40.582031 5.664062 41.160156 6.660156 41.117188 C 7.609375 41.144531 8.558594 41.21875 9.507812 41.261719 C 11.914062 41.398438 14.320312 41.515625 16.726562 41.648438 C 19.210938 41.773438 21.699219 41.910156 24.183594 42.039062 C 24.957031 42.082031 25.730469 42.105469 26.503906 42.15625 C 27.007812 42.15625 27.53125 42.265625 28.015625 42.097656 C 28.269531 41.984375 28.246094 42.074219 28.460938 42.210938 C 29.210938 42.738281 30.03125 43.191406 30.75 43.753906 C 30.824219 43.835938 30.824219 43.945312 30.8125 44.046875 C 30.796875 44.277344 30.5625 44.316406 30.375 44.304688 C 21.472656 44.3125 12.570312 44.308594 3.667969 44.304688 C 3.003906 44.285156 2.515625 44.945312 2.710938 45.507812 C 2.824219 46.007812 3.363281 46.261719 3.871094 46.222656 C 11.1875 46.265625 18.503906 46.222656 25.824219 46.234375 C 27.386719 46.238281 28.949219 46.246094 30.511719 46.242188 C 31.886719 46.320312 33.039062 45.039062 32.796875 43.675781 C 32.652344 42.636719 31.855469 42.109375 31.023438 41.617188 C 30.527344 41.296875 30.019531 40.996094 29.527344 40.675781 C 29.5 40.65625 29.488281 40.625 29.496094 40.597656 C 30.320312 36.265625 31.105469 31.921875 31.9375 27.589844 C 32.199219 26.222656 32.457031 24.855469 32.71875 23.488281 C 32.890625 22.738281 32.863281 21.835938 33.554688 21.347656 C 33.710938 21.226562 33.695312 21.246094 33.613281 21.089844 C 33.378906 20.664062 33.242188 20.207031 33.21875 19.722656 Z M 22.320312 26.191406 C 22.8125 26.1875 23.308594 26.1875 23.800781 26.1875 C 23.800781 26.1875 23.800781 26.1875 23.800781 26.183594 C 24.324219 26.1875 24.847656 26.175781 25.367188 26.191406 C 25.417969 26.195312 25.453125 26.230469 25.445312 26.277344 C 25.378906 26.847656 25.308594 27.417969 25.234375 27.984375 C 25.191406 28.3125 25.167969 28.644531 25.109375 28.972656 C 25.101562 29.042969 25.027344 29.046875 24.972656 29.046875 C 23.992188 29.039062 23.011719 29.050781 22.035156 29.035156 C 21.988281 29.035156 21.957031 29 21.957031 28.949219 C 21.996094 28.070312 22.054688 27.199219 22.097656 26.324219 C 22.089844 26.171875 22.214844 26.195312 22.320312 26.191406 Z M 9.585938 26.191406 C 10.109375 26.175781 10.632812 26.191406 11.152344 26.1875 C 11.683594 26.191406 12.210938 26.175781 12.742188 26.195312 C 12.789062 26.203125 12.808594 26.253906 12.808594 26.296875 C 12.828125 26.515625 12.84375 26.734375 12.859375 26.957031 C 12.90625 27.578125 12.957031 28.203125 13 28.828125 C 12.996094 28.894531 13.03125 29.015625 12.945312 29.042969 C 11.953125 29.054688 10.957031 29.050781 9.964844 29.042969 C 9.941406 29.039062 9.910156 29.015625 9.90625 28.988281 C 9.757812 28.148438 9.683594 27.296875 9.550781 26.453125 C 9.550781 26.375 9.488281 26.230469 9.585938 26.191406 Z M 9.144531 30.046875 C 9.1875 30.347656 9.226562 30.644531 9.269531 30.945312 C 9.339844 31.484375 9.449219 32.019531 9.5 32.5625 C 9.484375 32.644531 9.371094 32.617188 9.308594 32.625 C 8.472656 32.617188 7.632812 32.640625 6.792969 32.621094 C 6.730469 32.605469 6.722656 32.53125 6.707031 32.480469 C 6.636719 32.195312 6.5625 31.910156 6.496094 31.621094 C 6.363281 31.078125 6.234375 30.535156 6.105469 29.992188 C 6.097656 29.945312 6.117188 29.917969 6.160156 29.914062 C 6.644531 29.914062 7.132812 29.914062 7.617188 29.914062 C 8.101562 29.921875 8.589844 29.902344 9.074219 29.925781 C 9.128906 29.933594 9.140625 30 9.144531 30.046875 Z M 5.390625 26.191406 C 5.902344 26.183594 6.417969 26.183594 6.933594 26.183594 C 6.933594 26.1875 6.933594 26.1875 6.933594 26.1875 C 7.429688 26.1875 7.921875 26.1875 8.414062 26.1875 C 8.628906 26.1875 8.617188 26.1875 8.648438 26.390625 C 8.679688 26.617188 8.707031 26.84375 8.738281 27.070312 C 8.828125 27.679688 8.90625 28.292969 8.996094 28.90625 C 9.015625 29.027344 9 29.046875 8.875 29.046875 C 7.964844 29.046875 7.050781 29.046875 6.136719 29.046875 C 5.972656 29.046875 5.898438 29.070312 5.867188 28.878906 C 5.667969 27.996094 5.425781 27.125 5.257812 26.238281 C 5.269531 26.1875 5.347656 26.195312 5.390625 26.191406 Z M 7.234375 39.210938 C 6.992188 39.199219 6.75 39.179688 6.507812 39.171875 C 6.316406 39.164062 6.1875 39.078125 6.121094 38.898438 C 5.316406 36.476562 4.621094 34.015625 3.839844 31.582031 C 3.3125 29.820312 2.710938 28.078125 2.199219 26.316406 C 2.199219 26.164062 2.371094 26.179688 2.476562 26.183594 C 2.75 26.183594 3.023438 26.183594 3.296875 26.183594 C 3.296875 26.1875 3.296875 26.1875 3.296875 26.191406 C 3.617188 26.199219 3.945312 26.175781 4.265625 26.203125 C 4.34375 26.234375 4.339844 26.339844 4.367188 26.410156 C 4.566406 27.269531 4.789062 28.125 4.980469 28.988281 C 5.03125 29.136719 3.878906 28.96875 3.886719 29.09375 C 3.941406 29.347656 4.078125 29.585938 4.164062 29.832031 C 4.191406 29.894531 4.242188 29.917969 4.304688 29.921875 C 4.5625 29.921875 4.820312 29.921875 5.078125 29.921875 C 5.15625 29.921875 5.1875 29.945312 5.203125 30.019531 C 5.40625 30.863281 5.617188 31.707031 5.816406 32.550781 C 5.820312 32.65625 5.683594 32.613281 5.617188 32.625 C 5.300781 32.628906 4.984375 32.609375 4.667969 32.628906 C 4.546875 32.648438 4.828125 33.277344 4.847656 33.394531 C 4.878906 33.480469 4.898438 33.492188 4.996094 33.492188 C 5.296875 33.492188 5.601562 33.484375 5.902344 33.488281 C 6.011719 33.492188 6.03125 33.507812 6.054688 33.605469 C 6.257812 34.488281 6.476562 35.367188 6.6875 36.246094 C 6.695312 36.34375 6.527344 36.300781 6.464844 36.3125 C 6.324219 36.316406 6.183594 36.316406 6.042969 36.320312 C 5.972656 36.320312 5.9375 36.371094 5.964844 36.4375 C 6.308594 37.308594 6.007812 37.199219 6.839844 37.1875 C 6.871094 37.1875 6.894531 37.207031 6.90625 37.238281 C 7.058594 37.871094 7.210938 38.511719 7.332031 39.152344 C 7.335938 39.199219 7.277344 39.21875 7.234375 39.210938 Z M 7.597656 36.257812 C 7.570312 36.15625 7.542969 36.058594 7.515625 35.957031 C 7.328125 35.15625 7.136719 34.355469 6.953125 33.554688 C 6.933594 33.480469 7.027344 33.476562 7.078125 33.480469 C 7.203125 33.480469 7.328125 33.480469 7.453125 33.480469 C 7.734375 33.480469 8.011719 33.480469 8.292969 33.480469 C 8.292969 33.484375 8.292969 33.484375 8.292969 33.484375 C 8.71875 33.488281 9.144531 33.476562 9.574219 33.492188 C 9.621094 33.492188 9.652344 33.527344 9.660156 33.574219 C 9.679688 33.707031 9.695312 33.835938 9.714844 33.96875 C 9.796875 34.664062 9.925781 35.351562 10.019531 36.042969 C 10.015625 36.113281 10.074219 36.28125 9.980469 36.300781 C 9.207031 36.3125 8.433594 36.3125 7.664062 36.304688 C 7.632812 36.304688 7.605469 36.289062 7.597656 36.257812 Z M 10.363281 39.355469 C 9.980469 39.34375 9.597656 39.324219 9.21875 39.304688 C 8.9375 39.292969 8.660156 39.28125 8.378906 39.269531 C 8.339844 39.269531 8.285156 39.257812 8.269531 39.21875 C 8.121094 38.65625 8.011719 38.085938 7.878906 37.523438 C 7.867188 37.464844 7.859375 37.40625 7.84375 37.347656 C 7.796875 37.1875 7.820312 37.183594 7.984375 37.183594 C 8.316406 37.183594 8.644531 37.183594 8.976562 37.183594 C 8.976562 37.179688 8.976562 37.179688 8.976562 37.179688 C 9.351562 37.183594 9.726562 37.175781 10.101562 37.1875 C 10.183594 37.1875 10.1875 37.277344 10.199219 37.335938 C 10.28125 37.992188 10.394531 38.644531 10.46875 39.300781 C 10.460938 39.351562 10.402344 39.355469 10.363281 39.355469 Z M 10.242188 31.433594 C 10.171875 30.960938 10.101562 30.488281 10.027344 30.015625 C 10.019531 29.980469 10.039062 29.933594 10.074219 29.929688 C 11.042969 29.90625 12.015625 29.910156 12.984375 29.917969 C 13.050781 29.921875 13.074219 29.949219 13.082031 30.015625 C 13.140625 30.851562 13.222656 31.6875 13.28125 32.523438 C 13.285156 32.582031 13.253906 32.617188 13.1875 32.621094 C 12.742188 32.625 12.292969 32.621094 11.84375 32.621094 C 11.84375 32.625 11.84375 32.625 11.84375 32.625 C 11.386719 32.621094 10.929688 32.636719 10.476562 32.621094 C 10.339844 32.644531 10.292969 31.605469 10.242188 31.433594 Z M 10.910156 36.167969 C 10.796875 35.300781 10.664062 34.433594 10.550781 33.566406 C 10.546875 33.527344 10.574219 33.496094 10.617188 33.496094 C 10.726562 33.492188 10.835938 33.484375 10.945312 33.484375 C 11.277344 33.484375 11.609375 33.484375 11.941406 33.484375 C 12.367188 33.484375 12.792969 33.476562 13.21875 33.488281 C 13.339844 33.492188 13.355469 33.511719 13.367188 33.632812 C 13.386719 33.859375 13.402344 34.085938 13.417969 34.316406 C 13.453125 34.871094 13.496094 35.429688 13.546875 35.988281 C 13.542969 36.121094 13.628906 36.324219 13.421875 36.304688 C 12.632812 36.304688 11.84375 36.308594 11.058594 36.304688 C 10.9375 36.304688 10.925781 36.292969 10.910156 36.167969 Z M 13.71875 39.527344 C 12.960938 39.5 12.203125 39.46875 11.445312 39.425781 C 11.371094 39.414062 11.359375 39.328125 11.351562 39.265625 C 11.324219 39.070312 11.296875 38.871094 11.269531 38.675781 C 11.207031 38.210938 11.128906 37.746094 11.078125 37.277344 C 11.074219 37.21875 11.089844 37.183594 11.171875 37.183594 C 11.558594 37.179688 11.949219 37.183594 12.339844 37.183594 C 12.714844 37.183594 13.09375 37.183594 13.46875 37.1875 C 13.621094 37.1875 13.628906 37.199219 13.640625 37.347656 C 13.660156 37.691406 13.679688 38.039062 13.707031 38.382812 C 13.734375 38.742188 13.78125 39.101562 13.789062 39.460938 C 13.789062 39.5 13.757812 39.53125 13.71875 39.527344 Z M 13.910156 28.984375 C 13.851562 28.488281 13.832031 27.988281 13.789062 27.488281 C 13.769531 27.21875 13.753906 26.945312 13.734375 26.675781 C 13.726562 26.550781 13.714844 26.425781 13.707031 26.300781 C 13.703125 26.226562 13.730469 26.195312 13.8125 26.191406 C 14.324219 26.183594 14.839844 26.191406 15.355469 26.1875 C 15.878906 26.191406 16.398438 26.179688 16.921875 26.191406 C 17.0625 26.207031 16.996094 26.398438 17.015625 26.496094 C 17.011719 27.328125 17.050781 28.15625 17.03125 28.988281 C 17.03125 29.011719 16.996094 29.042969 16.972656 29.042969 C 16.035156 29.050781 15.101562 29.042969 14.167969 29.046875 C 14.089844 29.03125 13.945312 29.082031 13.910156 28.984375 Z M 14.179688 32.546875 C 14.167969 32.421875 14.152344 32.296875 14.144531 32.171875 C 14.113281 31.828125 14.085938 31.484375 14.0625 31.136719 C 14.035156 30.757812 14.007812 30.375 13.984375 29.992188 C 13.984375 29.953125 14.011719 29.917969 14.050781 29.917969 C 14.535156 29.910156 15.019531 29.917969 15.507812 29.914062 C 15.507812 29.914062 15.507812 29.917969 15.507812 29.917969 C 15.957031 29.917969 16.40625 29.917969 16.851562 29.917969 C 17.0625 29.917969 17.058594 29.917969 17.0625 30.125 C 17.066406 30.9375 17.09375 31.746094 17.082031 32.554688 C 17.082031 32.589844 17.046875 32.621094 17.007812 32.621094 C 16.097656 32.628906 15.183594 32.628906 14.269531 32.625 C 14.21875 32.621094 14.1875 32.59375 14.179688 32.546875 Z M 14.429688 36.105469 C 14.371094 35.253906 14.289062 34.402344 14.261719 33.550781 C 14.261719 33.527344 14.296875 33.488281 14.316406 33.488281 C 15.15625 33.472656 15.996094 33.488281 16.835938 33.484375 C 16.910156 33.496094 17.070312 33.457031 17.089844 33.554688 C 17.105469 34.003906 17.097656 34.453125 17.105469 34.902344 C 17.105469 34.902344 17.109375 34.902344 17.109375 34.902344 C 17.109375 35.300781 17.109375 35.699219 17.109375 36.097656 C 17.109375 36.304688 17.109375 36.304688 16.90625 36.304688 C 16.152344 36.304688 15.402344 36.308594 14.652344 36.308594 C 14.425781 36.308594 14.453125 36.3125 14.429688 36.105469 Z M 17.136719 39.648438 C 17.132812 39.675781 17.101562 39.703125 17.078125 39.703125 C 16.769531 39.710938 16.460938 39.683594 16.152344 39.667969 C 15.683594 39.640625 15.207031 39.640625 14.742188 39.597656 C 14.722656 39.59375 14.699219 39.574219 14.695312 39.558594 C 14.617188 39 14.601562 38.429688 14.550781 37.867188 C 14.535156 37.660156 14.527344 37.457031 14.519531 37.25 C 14.515625 37.222656 14.546875 37.191406 14.570312 37.1875 C 14.984375 37.175781 15.394531 37.1875 15.808594 37.183594 C 16.21875 37.1875 16.632812 37.175781 17.042969 37.191406 C 17.113281 37.199219 17.109375 37.277344 17.109375 37.332031 C 17.117188 38.105469 17.144531 38.878906 17.136719 39.648438 Z M 20.625 37.332031 C 20.605469 37.734375 20.59375 38.140625 20.570312 38.546875 C 20.570312 38.546875 20.566406 38.546875 20.566406 38.546875 C 20.546875 38.957031 20.527344 39.367188 20.503906 39.78125 C 20.511719 39.894531 20.417969 39.890625 20.332031 39.886719 C 19.789062 39.875 19.246094 39.835938 18.699219 39.808594 C 18.496094 39.792969 18.285156 39.808594 18.085938 39.769531 C 18.027344 39.746094 18.035156 39.667969 18.03125 39.617188 C 18.03125 38.828125 18.015625 38.039062 18.023438 37.25 C 18.03125 37.191406 18.101562 37.1875 18.148438 37.1875 C 18.871094 37.183594 19.589844 37.183594 20.3125 37.183594 C 20.441406 37.195312 20.65625 37.128906 20.625 37.332031 Z M 20.8125 33.613281 C 20.808594 33.789062 20.796875 33.96875 20.785156 34.144531 C 20.753906 34.828125 20.738281 35.511719 20.695312 36.191406 C 20.6875 36.285156 20.667969 36.300781 20.570312 36.304688 C 19.796875 36.308594 19.023438 36.304688 18.25 36.308594 C 17.9375 36.324219 18.007812 36.242188 17.992188 35.988281 C 17.992188 35.179688 17.980469 34.367188 17.984375 33.558594 C 17.988281 33.523438 18.015625 33.492188 18.058594 33.492188 C 18.5 33.484375 18.941406 33.484375 19.382812 33.484375 C 19.382812 33.484375 19.382812 33.484375 19.382812 33.480469 C 19.816406 33.484375 20.25 33.476562 20.683594 33.484375 C 20.792969 33.488281 20.816406 33.511719 20.8125 33.613281 Z M 20.992188 30.125 C 20.960938 30.734375 20.925781 31.34375 20.902344 31.953125 C 20.890625 32.152344 20.878906 32.351562 20.867188 32.546875 C 20.867188 32.585938 20.832031 32.617188 20.796875 32.621094 C 19.886719 32.632812 18.972656 32.628906 18.0625 32.625 C 18.015625 32.621094 17.984375 32.589844 17.980469 32.539062 C 17.953125 31.714844 17.957031 30.890625 17.945312 30.066406 C 17.929688 29.964844 17.976562 29.917969 18.078125 29.921875 C 18.550781 29.910156 19.019531 29.917969 19.492188 29.917969 C 19.492188 29.917969 19.492188 29.917969 19.492188 29.914062 C 19.925781 29.914062 20.359375 29.914062 20.792969 29.914062 C 21 29.914062 21 29.917969 20.992188 30.125 Z M 21.152344 26.882812 C 21.121094 27.582031 21.089844 28.28125 21.042969 28.980469 C 21.039062 29.015625 21.003906 29.039062 20.964844 29.042969 C 20.023438 29.050781 19.078125 29.046875 18.136719 29.046875 C 17.933594 29.046875 17.929688 29.046875 17.925781 28.839844 C 17.917969 28.023438 17.910156 27.207031 17.902344 26.386719 C 17.910156 26.324219 17.882812 26.214844 17.96875 26.199219 C 18.492188 26.179688 19.015625 26.191406 19.539062 26.1875 C 19.539062 26.1875 19.539062 26.1875 19.539062 26.183594 C 20.054688 26.1875 20.570312 26.179688 21.085938 26.1875 C 21.148438 26.191406 21.175781 26.222656 21.175781 26.289062 C 21.167969 26.488281 21.160156 26.683594 21.152344 26.882812 Z M 24.039062 37.390625 C 23.972656 37.96875 23.898438 38.542969 23.828125 39.121094 C 23.792969 39.398438 23.757812 39.675781 23.722656 39.953125 C 23.722656 40 23.699219 40.035156 23.65625 40.054688 C 22.96875 40.046875 22.273438 39.980469 21.585938 39.964844 C 21.511719 39.960938 21.402344 39.957031 21.402344 39.859375 C 21.402344 39.433594 21.441406 39.007812 21.457031 38.582031 C 21.457031 38.582031 21.460938 38.582031 21.460938 38.582031 C 21.492188 38.132812 21.488281 37.683594 21.535156 37.238281 C 21.554688 37.128906 22.386719 37.207031 22.546875 37.183594 C 22.980469 37.183594 23.414062 37.183594 23.851562 37.183594 C 24.066406 37.183594 24.0625 37.1875 24.039062 37.390625 Z M 24.171875 36.265625 C 24.136719 36.316406 24.066406 36.308594 24.011719 36.308594 C 23.265625 36.308594 22.523438 36.308594 21.78125 36.308594 C 21.570312 36.308594 21.566406 36.308594 21.578125 36.101562 C 21.597656 35.644531 21.625 35.191406 21.648438 34.734375 C 21.679688 34.578125 21.648438 33.449219 21.773438 33.488281 C 22.222656 33.476562 22.671875 33.484375 23.121094 33.480469 C 23.570312 33.484375 24.019531 33.46875 24.46875 33.488281 C 24.492188 33.488281 24.523438 33.527344 24.523438 33.550781 C 24.421875 34.457031 24.304688 35.363281 24.171875 36.265625 Z M 21.976562 32.625 C 21.769531 32.625 21.769531 32.625 21.773438 32.417969 C 21.792969 31.734375 21.855469 31.054688 21.878906 30.371094 C 21.886719 30.238281 21.902344 30.105469 21.914062 29.976562 C 21.914062 29.949219 21.945312 29.921875 21.972656 29.921875 C 22.464844 29.910156 22.957031 29.917969 23.449219 29.914062 C 23.449219 29.914062 23.449219 29.910156 23.449219 29.90625 C 23.929688 29.910156 24.40625 29.902344 24.886719 29.914062 C 24.972656 29.917969 24.992188 29.9375 24.984375 30.015625 C 24.90625 30.859375 24.753906 31.691406 24.664062 32.53125 C 24.65625 32.597656 24.628906 32.621094 24.558594 32.621094 C 23.699219 32.628906 22.839844 32.625 21.976562 32.625 Z M 30.226562 26.273438 C 29.933594 27.933594 29.601562 29.585938 29.304688 31.246094 C 28.757812 34.117188 28.230469 36.992188 27.710938 39.867188 C 27.683594 40.011719 27.652344 40.234375 27.46875 40.242188 C 26.585938 40.246094 25.703125 40.171875 24.820312 40.140625 C 24.75 40.128906 24.628906 40.15625 24.617188 40.0625 C 24.652344 39.488281 24.757812 38.921875 24.824219 38.351562 C 24.859375 38.074219 24.886719 37.796875 24.925781 37.519531 C 24.984375 37.128906 24.90625 37.183594 25.300781 37.183594 C 25.980469 37.183594 26.65625 37.1875 27.335938 37.1875 C 27.398438 37.175781 27.476562 37.203125 27.523438 37.152344 C 27.589844 36.898438 27.644531 36.636719 27.6875 36.375 C 27.691406 36.347656 27.664062 36.316406 27.636719 36.3125 C 26.835938 36.296875 26.03125 36.316406 25.226562 36.304688 C 25.183594 36.304688 25.105469 36.3125 25.101562 36.25 C 25.105469 36.183594 25.105469 36.117188 25.113281 36.050781 C 25.179688 35.519531 25.253906 34.984375 25.320312 34.453125 C 25.367188 34.148438 25.394531 33.835938 25.453125 33.535156 C 25.492188 33.464844 25.582031 33.488281 25.652344 33.480469 C 26.535156 33.472656 27.417969 33.496094 28.300781 33.480469 C 28.328125 33.476562 28.359375 33.449219 28.363281 33.421875 C 28.410156 33.199219 28.460938 32.976562 28.507812 32.753906 C 28.535156 32.644531 28.449219 32.625 28.363281 32.628906 C 28.15625 32.625 27.949219 32.625 27.742188 32.625 C 27.042969 32.621094 26.34375 32.632812 25.644531 32.617188 C 25.609375 32.617188 25.578125 32.582031 25.582031 32.542969 C 25.660156 31.683594 25.792969 30.832031 25.902344 29.976562 C 25.90625 29.953125 25.933594 29.925781 25.960938 29.921875 C 26.933594 29.894531 27.90625 29.925781 28.878906 29.894531 C 28.976562 29.875 28.957031 29.71875 28.988281 29.648438 C 29.023438 29.503906 29.058594 29.359375 29.089844 29.21875 C 29.117188 29.148438 29.140625 29.046875 29.039062 29.046875 C 28.929688 29.046875 28.820312 29.046875 28.707031 29.046875 C 27.832031 29.039062 26.957031 29.054688 26.078125 29.035156 C 26.054688 29.035156 26.023438 29 26.023438 28.976562 C 26.101562 28.125 26.253906 27.285156 26.347656 26.433594 C 26.371094 26.363281 26.34375 26.226562 26.433594 26.203125 C 27.066406 26.167969 27.699219 26.195312 28.332031 26.1875 C 28.332031 26.183594 28.332031 26.183594 28.332031 26.179688 C 28.945312 26.1875 29.554688 26.167969 30.167969 26.191406 C 30.203125 26.195312 30.230469 26.230469 30.226562 26.273438 Z M 30.226562 26.273438 " fill-opacity="1" fill-rule="nonzero"/></g><path fill="#414042" d="M 7.910156 47.25 C 7.730469 47.1875 7.730469 47.1875 7.726562 47.003906 C 7.726562 46.898438 7.726562 46.796875 7.726562 46.695312 C 7.726562 46.648438 7.722656 46.582031 7.671875 46.566406 C 7.296875 46.539062 6.921875 46.5625 6.546875 46.554688 C 6.546875 46.554688 6.546875 46.550781 6.546875 46.550781 C 6.242188 46.550781 5.941406 46.550781 5.640625 46.550781 C 5.546875 46.570312 5.347656 46.496094 5.339844 46.640625 C 5.339844 46.738281 5.339844 46.832031 5.339844 46.929688 C 5.335938 47.222656 5.375 47.175781 5.085938 47.273438 C 3.308594 47.859375 2.160156 49.796875 2.480469 51.640625 C 3.289062 56.222656 9.933594 56.164062 10.613281 51.546875 C 10.886719 49.695312 9.679688 47.824219 7.910156 47.25 Z M 4.617188 51.046875 C 4.597656 48.765625 7.925781 48.402344 8.421875 50.621094 C 8.90625 53.367188 4.753906 53.765625 4.617188 51.046875 Z M 4.617188 51.046875 " fill-opacity="1" fill-rule="nonzero"/><path fill="#414042" d="M 30.777344 47.246094 C 30.679688 47.21875 30.628906 47.15625 30.632812 47.054688 C 30.636719 46.941406 30.632812 46.832031 30.632812 46.722656 C 30.628906 46.5625 30.621094 46.554688 30.472656 46.554688 C 30.125 46.546875 29.78125 46.550781 29.433594 46.550781 C 29.433594 46.546875 29.433594 46.542969 29.433594 46.542969 C 29.058594 46.546875 28.683594 46.535156 28.308594 46.546875 C 28.222656 46.5625 28.246094 46.671875 28.238281 46.734375 C 28.234375 46.847656 28.234375 46.957031 28.230469 47.066406 C 28.226562 47.175781 28.214844 47.195312 28.113281 47.226562 C 27.371094 47.441406 26.707031 47.90625 26.21875 48.5 C 24.085938 51.007812 26.039062 55.015625 29.28125 55.058594 C 32.21875 55.25 34.417969 52.109375 33.175781 49.429688 C 32.726562 48.398438 31.835938 47.609375 30.777344 47.246094 Z M 27.527344 51.230469 C 27.324219 48.613281 31.171875 48.355469 31.335938 50.960938 C 31.339844 53.410156 27.832031 53.554688 27.527344 51.230469 Z M 27.527344 51.230469 " fill-opacity="1" fill-rule="nonzero"/><g clip-path="url(#1228697a52)"><path fill="#414042" d="M 39.464844 17.226562 C 37.667969 17.714844 35.847656 18.128906 34.070312 18.667969 C 33.785156 18.808594 33.773438 19.238281 33.753906 19.519531 C 33.757812 20.066406 33.953125 20.597656 34.285156 21.035156 C 34.386719 21.144531 34.496094 21.320312 34.664062 21.304688 C 36.554688 20.835938 38.453125 20.371094 40.324219 19.84375 C 41.910156 19.140625 40.964844 16.824219 39.464844 17.226562 Z M 39.464844 17.226562 " fill-opacity="1" fill-rule="nonzero"/></g><g clip-path="url(#b4087f59a2)"><g clip-path="url(#f1dc827984)"><g clip-path="url(#948546ec5f)"><path fill="#414042" d="M 3.515625 58.664062 C 4.730469 60.417969 6.5625 61.78125 8.410156 62.8125 C 10.3125 63.871094 12.363281 64.613281 14.496094 65.042969 C 18.828125 65.917969 23.378906 65.285156 27.3125 63.273438 C 28.398438 62.714844 29.445312 62.066406 30.414062 61.324219 C 30.902344 60.953125 31.375 60.550781 31.832031 60.136719 C 32.304688 59.699219 32.800781 59.265625 33.097656 58.683594 C 33.304688 58.265625 32.746094 58.007812 32.4375 58.199219 C 32.003906 58.46875 31.679688 58.882812 31.304688 59.226562 C 30.890625 59.613281 30.46875 59.984375 30.023438 60.332031 C 29.207031 60.976562 28.355469 61.554688 27.449219 62.042969 C 25.578125 63.078125 23.546875 63.804688 21.445312 64.179688 C 17.359375 64.902344 13.136719 64.140625 9.402344 62.386719 C 7.28125 61.382812 5.472656 59.988281 3.707031 58.449219 C 3.589844 58.335938 3.421875 58.535156 3.515625 58.664062 Z M 3.515625 58.664062 " fill-opacity="1" fill-rule="nonzero"/></g></g></g><g clip-path="url(#da9bb0bdd3)"><g clip-path="url(#48b6086a03)"><g clip-path="url(#cd619a7673)"><path fill="#414042" d="M 31.878906 57.601562 C 31.902344 57.632812 31.960938 57.816406 32.019531 57.894531 C 32.148438 58.0625 32.285156 58.195312 32.402344 58.378906 C 32.636719 58.738281 32.777344 59.117188 32.824219 59.542969 C 32.898438 60.25 34.007812 60.085938 33.925781 59.371094 C 33.8125 58.421875 33.261719 57.660156 32.394531 57.265625 C 32.285156 57.222656 32.125 57.246094 32.035156 57.324219 C 32.039062 57.316406 32.039062 57.300781 32.039062 57.300781 C 31.886719 57.296875 31.769531 57.472656 31.878906 57.601562 Z M 31.878906 57.601562 " fill-opacity="1" fill-rule="nonzero"/></g></g></g><g clip-path="url(#381fa3b59c)"><g clip-path="url(#0b699c9b78)"><g clip-path="url(#05a3ceeee8)"><path fill="#414042" d="M 4.335938 58.027344 C 3.605469 57.777344 2.632812 58.421875 2.679688 59.21875 C 2.707031 59.570312 3.179688 59.628906 3.367188 59.386719 C 3.511719 59.207031 3.578125 59.019531 3.753906 58.875 C 3.929688 58.730469 4.128906 58.671875 4.335938 58.597656 C 4.597656 58.503906 4.574219 58.109375 4.335938 58.027344 Z M 4.335938 58.027344 " fill-opacity="1" fill-rule="nonzero"/></g></g></g><g fill="#00bf63" fill-opacity="1"><g transform="translate(43.901744, 41.918002)"><g><path d="M 1.09375 0 L 1.09375 -24.640625 L 10.953125 -24.640625 L 10.953125 -19.875 L 6.109375 -19.875 L 6.109375 -15.09375 L 10.75 -15.09375 L 10.75 -10.4375 L 6.109375 -10.4375 L 6.109375 -4.796875 L 11.28125 -4.796875 L 11.28125 0 Z M 1.09375 0 "/></g></g></g><g fill="#00bf63" fill-opacity="1"><g transform="translate(55.719433, 41.918002)"><g><path d="M 4.8125 0.234375 C 3.1875 0.234375 2.070312 -0.304688 1.46875 -1.390625 C 0.875 -2.472656 0.578125 -4.019531 0.578125 -6.03125 C 0.578125 -7.664062 0.789062 -8.921875 1.21875 -9.796875 C 1.644531 -10.679688 2.238281 -11.328125 3 -11.734375 C 3.769531 -12.148438 4.941406 -12.609375 6.515625 -13.109375 L 7.890625 -13.5625 L 7.890625 -15.71875 C 7.890625 -16.269531 7.78125 -16.691406 7.5625 -16.984375 C 7.34375 -17.285156 7.078125 -17.4375 6.765625 -17.4375 C 6.503906 -17.4375 6.269531 -17.3125 6.0625 -17.0625 C 5.863281 -16.820312 5.765625 -16.488281 5.765625 -16.0625 L 5.765625 -14.796875 L 0.890625 -14.796875 L 0.890625 -15.484375 C 0.890625 -17.554688 1.367188 -19.03125 2.328125 -19.90625 C 3.296875 -20.789062 4.875 -21.234375 7.0625 -21.234375 C 8.800781 -21.234375 10.210938 -20.773438 11.296875 -19.859375 C 12.390625 -18.953125 12.9375 -17.664062 12.9375 -16 L 12.9375 0 L 7.953125 0 L 7.953125 -2.5 C 7.703125 -1.632812 7.300781 -0.960938 6.75 -0.484375 C 6.207031 -0.00390625 5.5625 0.234375 4.8125 0.234375 Z M 6.796875 -3.671875 C 7.179688 -3.671875 7.453125 -3.828125 7.609375 -4.140625 C 7.773438 -4.460938 7.859375 -4.851562 7.859375 -5.3125 L 7.859375 -11.15625 C 7.109375 -10.875 6.554688 -10.507812 6.203125 -10.0625 C 5.859375 -9.625 5.6875 -9.015625 5.6875 -8.234375 L 5.6875 -5.53125 C 5.6875 -4.289062 6.054688 -3.671875 6.796875 -3.671875 Z M 6.796875 -3.671875 "/></g></g></g><g fill="#00bf63" fill-opacity="1"><g transform="translate(69.573664, 41.918002)"><g><path d="M 6.765625 0.234375 C 2.617188 0.234375 0.546875 -1.867188 0.546875 -6.078125 L 0.578125 -7.75 L 5.59375 -7.75 L 5.625 -5.28125 C 5.625 -4.78125 5.71875 -4.398438 5.90625 -4.140625 C 6.101562 -3.890625 6.421875 -3.765625 6.859375 -3.765625 C 7.523438 -3.765625 7.859375 -4.304688 7.859375 -5.390625 C 7.859375 -6.191406 7.695312 -6.820312 7.375 -7.28125 C 7.0625 -7.738281 6.5625 -8.226562 5.875 -8.75 L 3.21875 -10.8125 C 2.300781 -11.519531 1.640625 -12.25 1.234375 -13 C 0.828125 -13.757812 0.625 -14.828125 0.625 -16.203125 C 0.625 -17.273438 0.90625 -18.1875 1.46875 -18.9375 C 2.039062 -19.695312 2.796875 -20.269531 3.734375 -20.65625 C 4.671875 -21.039062 5.710938 -21.234375 6.859375 -21.234375 C 10.929688 -21.234375 12.96875 -19.203125 12.96875 -15.140625 L 12.96875 -14.75 L 7.78125 -14.75 L 7.78125 -15.546875 C 7.78125 -16.046875 7.695312 -16.472656 7.53125 -16.828125 C 7.363281 -17.179688 7.09375 -17.359375 6.71875 -17.359375 C 6.375 -17.359375 6.109375 -17.253906 5.921875 -17.046875 C 5.742188 -16.847656 5.65625 -16.578125 5.65625 -16.234375 C 5.65625 -15.472656 5.953125 -14.878906 6.546875 -14.453125 L 9.640625 -12.1875 C 10.742188 -11.363281 11.59375 -10.46875 12.1875 -9.5 C 12.78125 -8.539062 13.078125 -7.328125 13.078125 -5.859375 C 13.078125 -3.898438 12.519531 -2.394531 11.40625 -1.34375 C 10.300781 -0.289062 8.753906 0.234375 6.765625 0.234375 Z M 6.765625 0.234375 "/></g></g></g><g fill="#00bf63" fill-opacity="1"><g transform="translate(83.198421, 41.918002)"><g><path d="M 0.609375 0.3125 L 3.015625 0.3125 C 3.359375 0.3125 3.53125 0.171875 3.53125 -0.109375 C 3.53125 -0.242188 3.519531 -0.351562 3.5 -0.4375 L 0.234375 -21 L 5.015625 -21 L 5.96875 -10.75 L 6.421875 -5.53125 L 6.96875 -10.75 L 8.09375 -21 L 12.90625 -21 L 9.015625 1.09375 C 8.878906 1.914062 8.601562 2.519531 8.1875 2.90625 C 7.78125 3.300781 7.132812 3.5 6.25 3.5 L 0.609375 3.5 Z M 0.609375 0.3125 "/></g></g></g><g fill="#ed6918" fill-opacity="1"><g transform="translate(45.235219, 64.891377)"><g><path d="M 0.65625 0 L 0.65625 -15 L 5.234375 -15 L 6.5 -5.84375 L 7.75 -15 L 12.359375 -15 L 12.359375 0 L 9.609375 0 L 9.609375 -10.796875 L 7.890625 0 L 5.203125 0 L 3.375 -10.796875 L 3.375 0 Z M 0.65625 0 "/></g></g></g><g fill="#ed6918" fill-opacity="1"><g transform="translate(58.253564, 64.891377)"><g><path d="M 2.9375 0.140625 C 1.945312 0.140625 1.265625 -0.1875 0.890625 -0.84375 C 0.523438 -1.5 0.34375 -2.441406 0.34375 -3.671875 C 0.34375 -4.671875 0.472656 -5.4375 0.734375 -5.96875 C 1.003906 -6.5 1.367188 -6.890625 1.828125 -7.140625 C 2.296875 -7.390625 3.007812 -7.664062 3.96875 -7.96875 L 4.796875 -8.25 L 4.796875 -9.5625 C 4.796875 -9.90625 4.726562 -10.164062 4.59375 -10.34375 C 4.457031 -10.519531 4.300781 -10.609375 4.125 -10.609375 C 3.957031 -10.609375 3.8125 -10.53125 3.6875 -10.375 C 3.570312 -10.226562 3.515625 -10.03125 3.515625 -9.78125 L 3.515625 -9 L 0.546875 -9 L 0.546875 -9.421875 C 0.546875 -10.679688 0.835938 -11.578125 1.421875 -12.109375 C 2.003906 -12.648438 2.960938 -12.921875 4.296875 -12.921875 C 5.347656 -12.921875 6.207031 -12.640625 6.875 -12.078125 C 7.539062 -11.523438 7.875 -10.742188 7.875 -9.734375 L 7.875 0 L 4.828125 0 L 4.828125 -1.515625 C 4.679688 -0.992188 4.441406 -0.585938 4.109375 -0.296875 C 3.773438 -0.00390625 3.382812 0.140625 2.9375 0.140625 Z M 4.140625 -2.234375 C 4.367188 -2.234375 4.53125 -2.328125 4.625 -2.515625 C 4.726562 -2.710938 4.78125 -2.953125 4.78125 -3.234375 L 4.78125 -6.796875 C 4.320312 -6.617188 3.984375 -6.394531 3.765625 -6.125 C 3.554688 -5.851562 3.453125 -5.484375 3.453125 -5.015625 L 3.453125 -3.375 C 3.453125 -2.613281 3.679688 -2.234375 4.140625 -2.234375 Z M 4.140625 -2.234375 "/></g></g></g><g fill="#ed6918" fill-opacity="1"><g transform="translate(66.682332, 64.891377)"><g><path d="M 0.609375 -12.78125 L 3.671875 -12.78125 L 3.671875 -11.359375 C 3.816406 -11.859375 4.078125 -12.242188 4.453125 -12.515625 C 4.835938 -12.796875 5.304688 -12.9375 5.859375 -12.9375 L 5.859375 -10.390625 C 5.429688 -10.390625 4.957031 -10.328125 4.4375 -10.203125 C 3.925781 -10.078125 3.671875 -9.9375 3.671875 -9.78125 L 3.671875 0 L 0.609375 0 Z M 0.609375 -12.78125 "/></g></g></g><g fill="#ed6918" fill-opacity="1"><g transform="translate(72.685426, 64.891377)"><g><path d="M 0.609375 0 L 0.609375 -15.078125 L 3.625 -15.078125 L 3.625 -8.375 L 5.09375 -12.78125 L 8.25 -12.78125 L 6.328125 -7.21875 L 8.78125 0 L 5.53125 0 L 3.625 -6.015625 L 3.625 0 Z M 0.609375 0 "/></g></g></g><g fill="#ed6918" fill-opacity="1"><g transform="translate(81.2538, 64.891377)"><g><path d="M 4.1875 0.140625 C 2.875 0.140625 1.929688 -0.21875 1.359375 -0.9375 C 0.785156 -1.664062 0.5 -2.742188 0.5 -4.171875 L 0.5 -9.296875 C 0.5 -10.472656 0.835938 -11.367188 1.515625 -11.984375 C 2.191406 -12.609375 3.132812 -12.921875 4.34375 -12.921875 C 6.800781 -12.921875 8.03125 -11.710938 8.03125 -9.296875 L 8.03125 -8.375 C 8.03125 -7.445312 8.019531 -6.691406 8 -6.109375 L 3.5625 -6.109375 L 3.5625 -3.625 C 3.5625 -3.1875 3.609375 -2.84375 3.703125 -2.59375 C 3.796875 -2.34375 3.992188 -2.21875 4.296875 -2.21875 C 4.523438 -2.21875 4.6875 -2.285156 4.78125 -2.421875 C 4.882812 -2.566406 4.941406 -2.726562 4.953125 -2.90625 C 4.972656 -3.082031 4.984375 -3.347656 4.984375 -3.703125 L 4.984375 -4.9375 L 8.03125 -4.9375 L 8.03125 -4.203125 C 8.03125 -2.710938 7.738281 -1.613281 7.15625 -0.90625 C 6.582031 -0.207031 5.59375 0.140625 4.1875 0.140625 Z M 4.984375 -7.625 L 4.984375 -9.265625 C 4.984375 -10.179688 4.757812 -10.640625 4.3125 -10.640625 C 3.800781 -10.640625 3.546875 -10.179688 3.546875 -9.265625 L 3.546875 -7.625 Z M 4.984375 -7.625 "/></g></g></g><g fill="#ed6918" fill-opacity="1"><g transform="translate(89.769824, 64.891377)"><g><path d="M 3.25 0.140625 C 2.445312 0.140625 1.894531 -0.0234375 1.59375 -0.359375 C 1.289062 -0.703125 1.140625 -1.242188 1.140625 -1.984375 L 1.140625 -9.96875 L 0.28125 -9.96875 L 0.28125 -12.28125 L 1.140625 -12.28125 L 1.140625 -15 L 4.09375 -15 L 4.09375 -12.28125 L 4.96875 -12.28125 L 4.96875 -9.96875 L 4.09375 -9.96875 L 4.09375 -2.796875 C 4.09375 -2.566406 4.109375 -2.398438 4.140625 -2.296875 C 4.179688 -2.191406 4.28125 -2.140625 4.4375 -2.140625 C 4.550781 -2.140625 4.660156 -2.144531 4.765625 -2.15625 C 4.867188 -2.175781 4.9375 -2.1875 4.96875 -2.1875 L 4.96875 -0.09375 C 4.800781 -0.0390625 4.550781 0.0078125 4.21875 0.0625 C 3.882812 0.113281 3.5625 0.140625 3.25 0.140625 Z M 3.25 0.140625 "/></g></g></g></svg>