<svg xmlns="http://www.w3.org/2000/svg" xmlns:xlink="http://www.w3.org/1999/xlink" width="500" zoomAndPan="magnify" viewBox="0 0 375 374.999991" height="500" preserveAspectRatio="xMidYMid meet" version="1.0"><defs><g/><clipPath id="5860a558e2"><path d="M 113.253906 136 L 170 136 L 170 182 L 113.253906 182 Z M 113.253906 136 " clip-rule="nonzero"/></clipPath><clipPath id="7974e58cc9"><path d="M 118 201 L 169 201 L 169 214 L 118 214 Z M 118 201 " clip-rule="nonzero"/></clipPath><clipPath id="f9045a542b"><path d="M 135.976562 176.238281 L 171.691406 202.359375 L 152.210938 228.996094 L 116.492188 202.875 Z M 135.976562 176.238281 " clip-rule="nonzero"/></clipPath><clipPath id="2914c46532"><path d="M 135.976562 176.238281 L 171.691406 202.359375 L 152.210938 228.996094 L 116.492188 202.875 Z M 135.976562 176.238281 " clip-rule="nonzero"/></clipPath><clipPath id="abe823e7c4"><path d="M 166 199 L 171 199 L 171 205 L 166 205 Z M 166 199 " clip-rule="nonzero"/></clipPath><clipPath id="8edae39723"><path d="M 135.976562 176.238281 L 171.691406 202.359375 L 152.210938 228.996094 L 116.492188 202.875 Z M 135.976562 176.238281 " clip-rule="nonzero"/></clipPath><clipPath id="dd5bd40de7"><path d="M 135.976562 176.238281 L 171.691406 202.359375 L 152.210938 228.996094 L 116.492188 202.875 Z M 135.976562 176.238281 " clip-rule="nonzero"/></clipPath><clipPath id="c7e7795078"><path d="M 117 200 L 121 200 L 121 204 L 117 204 Z M 117 200 " clip-rule="nonzero"/></clipPath><clipPath id="e4c9d08dda"><path d="M 135.976562 176.238281 L 171.691406 202.359375 L 152.210938 228.996094 L 116.492188 202.875 Z M 135.976562 176.238281 " clip-rule="nonzero"/></clipPath><clipPath id="6c813f1b7e"><path d="M 135.976562 176.238281 L 171.691406 202.359375 L 152.210938 228.996094 L 116.492188 202.875 Z M 135.976562 176.238281 " clip-rule="nonzero"/></clipPath></defs><g clip-path="url(#5860a558e2)"><path fill="#414042" d="M 168.867188 136.511719 C 168.863281 136.472656 168.796875 136.421875 168.757812 136.425781 C 167.515625 136.546875 166.453125 137.394531 165.878906 138.480469 C 165.261719 139.664062 165.195312 141.035156 164.894531 142.316406 C 164.789062 142.863281 164.6875 143.414062 164.582031 143.960938 C 164.5625 144.070312 164.511719 144.117188 164.410156 144.121094 C 156.347656 144.164062 148.289062 144.132812 140.226562 144.140625 C 132.363281 144.140625 124.5 144.136719 116.640625 144.148438 C 115.09375 144.011719 113.65625 145.140625 113.402344 146.667969 C 113.265625 147.273438 113.375 147.878906 113.5625 148.460938 C 115.832031 155.632812 118.011719 162.832031 120.308594 169.996094 C 120.851562 171.617188 122.496094 172.589844 124.171875 172.519531 C 125.773438 172.566406 127.367188 172.691406 128.964844 172.765625 C 133.011719 172.992188 137.0625 173.191406 141.113281 173.414062 C 145.296875 173.628906 149.480469 173.855469 153.667969 174.074219 C 154.964844 174.148438 156.269531 174.183594 157.566406 174.273438 C 158.417969 174.265625 159.296875 174.453125 160.117188 174.167969 C 160.542969 173.976562 160.5 174.128906 160.863281 174.363281 C 162.128906 175.25 163.503906 176.007812 164.714844 176.960938 C 164.835938 177.097656 164.84375 177.277344 164.824219 177.453125 C 164.792969 177.839844 164.398438 177.90625 164.082031 177.882812 C 149.101562 177.894531 134.117188 177.886719 119.136719 177.886719 C 118.019531 177.847656 117.199219 178.964844 117.527344 179.910156 C 117.714844 180.75 118.625 181.175781 119.480469 181.113281 C 131.792969 181.183594 144.109375 181.113281 156.421875 181.136719 C 159.054688 181.136719 161.683594 181.152344 164.3125 181.144531 C 166.625 181.277344 168.566406 179.117188 168.160156 176.828125 C 167.914062 175.078125 166.574219 174.191406 165.171875 173.359375 C 164.339844 172.824219 163.484375 172.316406 162.65625 171.773438 C 162.613281 171.742188 162.59375 171.695312 162.605469 171.644531 C 163.996094 164.351562 165.3125 157.042969 166.710938 149.753906 C 167.15625 147.453125 167.589844 145.152344 168.027344 142.851562 C 168.320312 141.585938 168.269531 140.074219 169.4375 139.25 C 169.699219 139.042969 169.671875 139.082031 169.53125 138.816406 C 169.136719 138.097656 168.90625 137.328125 168.867188 136.511719 Z M 150.527344 147.398438 C 151.359375 147.394531 152.1875 147.394531 153.019531 147.394531 C 153.019531 147.390625 153.019531 147.390625 153.019531 147.390625 C 153.898438 147.394531 154.78125 147.375 155.660156 147.402344 C 155.746094 147.40625 155.800781 147.464844 155.789062 147.546875 C 155.679688 148.503906 155.554688 149.464844 155.433594 150.421875 C 155.359375 150.972656 155.324219 151.53125 155.226562 152.082031 C 155.207031 152.199219 155.085938 152.203125 154.992188 152.203125 C 153.34375 152.195312 151.695312 152.214844 150.046875 152.1875 C 149.96875 152.183594 149.917969 152.125 149.917969 152.039062 C 149.980469 150.566406 150.078125 149.09375 150.15625 147.621094 C 150.140625 147.367188 150.347656 147.410156 150.527344 147.398438 Z M 129.097656 147.402344 C 129.976562 147.371094 130.855469 147.402344 131.734375 147.390625 C 131.734375 147.394531 131.734375 147.394531 131.734375 147.394531 C 132.625 147.402344 133.519531 147.375 134.40625 147.410156 C 134.488281 147.417969 134.519531 147.507812 134.523438 147.578125 C 134.550781 147.945312 134.578125 148.316406 134.605469 148.6875 C 134.6875 149.738281 134.765625 150.785156 134.839844 151.835938 C 134.832031 151.949219 134.894531 152.152344 134.75 152.195312 C 133.078125 152.222656 131.40625 152.214844 129.738281 152.199219 C 129.691406 152.195312 129.644531 152.152344 129.636719 152.105469 C 129.386719 150.691406 129.261719 149.257812 129.035156 147.839844 C 129.039062 147.707031 128.933594 147.464844 129.097656 147.402344 Z M 128.355469 153.890625 C 128.425781 154.394531 128.492188 154.898438 128.566406 155.398438 C 128.683594 156.308594 128.863281 157.210938 128.953125 158.121094 C 128.929688 158.261719 128.738281 158.214844 128.632812 158.226562 C 127.222656 158.214844 125.808594 158.253906 124.394531 158.21875 C 124.292969 158.199219 124.277344 158.070312 124.25 157.984375 C 124.132812 157.503906 124.011719 157.023438 123.894531 156.542969 C 123.675781 155.625 123.460938 154.710938 123.242188 153.792969 C 123.222656 153.71875 123.257812 153.667969 123.328125 153.667969 C 124.148438 153.667969 124.964844 153.667969 125.785156 153.667969 C 126.601562 153.679688 127.417969 153.644531 128.234375 153.683594 C 128.332031 153.699219 128.347656 153.8125 128.355469 153.890625 Z M 122.035156 147.398438 C 122.902344 147.390625 123.769531 147.386719 124.636719 147.390625 C 124.636719 147.390625 124.636719 147.394531 124.636719 147.398438 C 125.464844 147.398438 126.296875 147.398438 127.125 147.398438 C 127.484375 147.398438 127.464844 147.398438 127.515625 147.738281 C 127.570312 148.117188 127.617188 148.496094 127.667969 148.878906 C 127.820312 149.90625 127.949219 150.941406 128.105469 151.96875 C 128.140625 152.171875 128.113281 152.207031 127.902344 152.207031 C 126.367188 152.207031 124.828125 152.207031 123.292969 152.207031 C 123.011719 152.207031 122.890625 152.246094 122.839844 151.921875 C 122.503906 150.441406 122.097656 148.96875 121.808594 147.476562 C 121.835938 147.394531 121.960938 147.410156 122.035156 147.398438 Z M 125.140625 169.316406 C 124.734375 169.292969 124.324219 169.261719 123.917969 169.246094 C 123.59375 169.230469 123.378906 169.085938 123.265625 168.785156 C 121.914062 164.707031 120.742188 160.566406 119.421875 156.476562 C 118.539062 153.511719 117.527344 150.574219 116.664062 147.609375 C 116.664062 147.355469 116.953125 147.382812 117.132812 147.386719 C 117.59375 147.386719 118.050781 147.386719 118.507812 147.386719 C 118.507812 147.390625 118.507812 147.394531 118.507812 147.398438 C 119.054688 147.410156 119.601562 147.375 120.144531 147.421875 C 120.277344 147.472656 120.265625 147.652344 120.3125 147.769531 C 120.648438 149.21875 121.023438 150.65625 121.347656 152.105469 C 121.429688 152.355469 119.492188 152.074219 119.507812 152.28125 C 119.59375 152.710938 119.828125 153.113281 119.972656 153.53125 C 120.015625 153.632812 120.101562 153.675781 120.210938 153.675781 C 120.644531 153.683594 121.078125 153.679688 121.511719 153.679688 C 121.644531 153.683594 121.695312 153.722656 121.722656 153.84375 C 122.0625 155.265625 122.414062 156.683594 122.75 158.105469 C 122.761719 158.277344 122.527344 158.210938 122.417969 158.226562 C 121.886719 158.234375 121.351562 158.203125 120.820312 158.234375 C 120.617188 158.269531 121.089844 159.328125 121.125 159.523438 C 121.171875 159.667969 121.207031 159.6875 121.371094 159.6875 C 121.878906 159.6875 122.386719 159.671875 122.894531 159.679688 C 123.082031 159.6875 123.113281 159.710938 123.152344 159.882812 C 123.492188 161.367188 123.863281 162.84375 124.222656 164.324219 C 124.234375 164.488281 123.949219 164.414062 123.84375 164.433594 C 123.605469 164.4375 123.371094 164.441406 123.136719 164.449219 C 123.015625 164.445312 122.957031 164.53125 123.003906 164.644531 C 123.582031 166.109375 123.078125 165.925781 124.472656 165.90625 C 124.527344 165.90625 124.566406 165.9375 124.585938 165.988281 C 124.84375 167.058594 125.101562 168.136719 125.304688 169.214844 C 125.308594 169.292969 125.210938 169.324219 125.140625 169.316406 Z M 125.75 164.339844 C 125.703125 164.171875 125.65625 164.007812 125.613281 163.835938 C 125.296875 162.488281 124.972656 161.140625 124.664062 159.789062 C 124.636719 159.664062 124.789062 159.664062 124.878906 159.667969 C 125.085938 159.667969 125.296875 159.671875 125.507812 159.671875 C 125.980469 159.671875 126.449219 159.671875 126.921875 159.671875 C 126.921875 159.671875 126.921875 159.671875 126.921875 159.675781 C 127.640625 159.683594 128.355469 159.660156 129.074219 159.6875 C 129.152344 159.691406 129.210938 159.746094 129.222656 159.828125 C 129.253906 160.046875 129.285156 160.269531 129.3125 160.492188 C 129.453125 161.660156 129.667969 162.8125 129.824219 163.980469 C 129.820312 164.097656 129.921875 164.378906 129.757812 164.414062 C 128.460938 164.4375 127.15625 164.4375 125.859375 164.425781 C 125.808594 164.417969 125.765625 164.394531 125.75 164.339844 Z M 130.40625 169.554688 C 129.761719 169.535156 129.121094 169.503906 128.476562 169.472656 C 128.007812 169.449219 127.539062 169.429688 127.066406 169.40625 C 127 169.410156 126.910156 169.386719 126.878906 169.324219 C 126.628906 168.382812 126.449219 167.421875 126.222656 166.46875 C 126.203125 166.375 126.191406 166.273438 126.164062 166.179688 C 126.085938 165.90625 126.125 165.898438 126.402344 165.898438 C 126.957031 165.898438 127.515625 165.898438 128.070312 165.898438 C 128.070312 165.894531 128.070312 165.894531 128.070312 165.894531 C 128.703125 165.898438 129.335938 165.882812 129.964844 165.90625 C 130.101562 165.910156 130.109375 166.054688 130.125 166.160156 C 130.265625 167.261719 130.457031 168.359375 130.582031 169.464844 C 130.570312 169.550781 130.472656 169.558594 130.40625 169.554688 Z M 130.199219 156.222656 C 130.085938 155.425781 129.964844 154.632812 129.84375 153.835938 C 129.828125 153.777344 129.859375 153.699219 129.917969 153.691406 C 131.550781 153.652344 133.1875 153.660156 134.820312 153.675781 C 134.925781 153.679688 134.96875 153.726562 134.976562 153.839844 C 135.082031 155.246094 135.21875 156.648438 135.316406 158.058594 C 135.324219 158.15625 135.269531 158.214844 135.160156 158.21875 C 134.40625 158.230469 133.652344 158.222656 132.894531 158.222656 C 132.894531 158.226562 132.894531 158.226562 132.894531 158.230469 C 132.128906 158.222656 131.359375 158.25 130.59375 158.21875 C 130.367188 158.257812 130.285156 156.507812 130.199219 156.222656 Z M 131.324219 164.191406 C 131.132812 162.730469 130.910156 161.273438 130.71875 159.8125 C 130.710938 159.75 130.761719 159.695312 130.832031 159.691406 C 131.015625 159.683594 131.203125 159.675781 131.386719 159.675781 C 131.945312 159.671875 132.503906 159.675781 133.058594 159.675781 C 133.058594 159.671875 133.058594 159.671875 133.058594 159.671875 C 133.777344 159.675781 134.496094 159.660156 135.214844 159.679688 C 135.410156 159.691406 135.441406 159.71875 135.460938 159.925781 C 135.492188 160.308594 135.519531 160.691406 135.546875 161.074219 C 135.609375 162.011719 135.675781 162.949219 135.761719 163.886719 C 135.757812 164.113281 135.902344 164.453125 135.550781 164.421875 C 134.222656 164.421875 132.898438 164.429688 131.574219 164.421875 C 131.371094 164.421875 131.351562 164.402344 131.324219 164.191406 Z M 136.050781 169.847656 C 134.773438 169.796875 133.5 169.742188 132.226562 169.671875 C 132.105469 169.652344 132.082031 169.507812 132.070312 169.40625 C 132.023438 169.074219 131.976562 168.742188 131.929688 168.414062 C 131.824219 167.628906 131.691406 166.84375 131.609375 166.054688 C 131.605469 165.960938 131.628906 165.902344 131.761719 165.902344 C 132.417969 165.890625 133.078125 165.898438 133.734375 165.898438 C 133.734375 165.898438 133.734375 165.902344 133.734375 165.902344 C 134.367188 165.902344 135 165.902344 135.628906 165.902344 C 135.886719 165.90625 135.902344 165.925781 135.917969 166.175781 C 135.957031 166.757812 135.988281 167.339844 136.03125 167.917969 C 136.078125 168.523438 136.15625 169.128906 136.167969 169.734375 C 136.171875 169.800781 136.121094 169.847656 136.050781 169.847656 Z M 136.371094 152.101562 C 136.273438 151.265625 136.242188 150.421875 136.171875 149.582031 C 136.140625 149.128906 136.113281 148.667969 136.082031 148.214844 C 136.066406 148.003906 136.046875 147.792969 136.03125 147.582031 C 136.023438 147.457031 136.070312 147.40625 136.207031 147.402344 C 137.074219 147.386719 137.941406 147.398438 138.804688 147.394531 C 139.683594 147.398438 140.5625 147.378906 141.441406 147.402344 C 141.679688 147.425781 141.570312 147.75 141.597656 147.914062 C 141.597656 149.308594 141.660156 150.710938 141.628906 152.109375 C 141.625 152.148438 141.566406 152.199219 141.527344 152.199219 C 139.953125 152.214844 138.382812 152.199219 136.808594 152.203125 C 136.675781 152.183594 136.429688 152.265625 136.371094 152.101562 Z M 136.828125 158.09375 C 136.804688 157.886719 136.785156 157.675781 136.765625 157.464844 C 136.71875 156.886719 136.671875 156.304688 136.628906 155.726562 C 136.582031 155.082031 136.542969 154.441406 136.5 153.796875 C 136.496094 153.730469 136.546875 153.671875 136.609375 153.671875 C 137.425781 153.660156 138.242188 153.667969 139.0625 153.667969 C 139.0625 153.667969 139.0625 153.667969 139.0625 153.671875 C 139.816406 153.671875 140.570312 153.667969 141.328125 153.671875 C 141.679688 153.671875 141.675781 153.675781 141.679688 154.023438 C 141.683594 155.386719 141.730469 156.746094 141.714844 158.109375 C 141.710938 158.167969 141.652344 158.222656 141.589844 158.222656 C 140.054688 158.234375 138.515625 158.238281 136.980469 158.226562 C 136.894531 158.222656 136.839844 158.175781 136.828125 158.09375 Z M 137.246094 164.085938 C 137.148438 162.652344 137.015625 161.21875 136.964844 159.785156 C 136.964844 159.75 137.027344 159.683594 137.058594 159.679688 C 138.46875 159.65625 139.882812 159.679688 141.296875 159.671875 C 141.421875 159.699219 141.691406 159.628906 141.722656 159.796875 C 141.75 160.550781 141.738281 161.308594 141.75 162.0625 C 141.753906 162.0625 141.757812 162.0625 141.761719 162.0625 C 141.761719 162.734375 141.761719 163.402344 141.761719 164.070312 C 141.761719 164.421875 141.761719 164.421875 141.414062 164.421875 C 140.148438 164.421875 138.886719 164.425781 137.621094 164.425781 C 137.242188 164.425781 137.285156 164.433594 137.246094 164.085938 Z M 141.800781 170.050781 C 141.800781 170.09375 141.746094 170.140625 141.703125 170.144531 C 141.183594 170.152344 140.664062 170.105469 140.144531 170.085938 C 139.355469 170.039062 138.558594 170.039062 137.773438 169.964844 C 137.742188 169.957031 137.707031 169.925781 137.695312 169.894531 C 137.566406 168.957031 137.539062 167.996094 137.453125 167.050781 C 137.425781 166.703125 137.414062 166.359375 137.398438 166.011719 C 137.394531 165.964844 137.445312 165.914062 137.488281 165.910156 C 138.179688 165.886719 138.875 165.90625 139.566406 165.898438 C 139.566406 165.898438 139.566406 165.902344 139.566406 165.902344 C 140.257812 165.90625 140.953125 165.886719 141.648438 165.910156 C 141.765625 165.925781 141.757812 166.058594 141.761719 166.152344 C 141.769531 167.449219 141.820312 168.75 141.800781 170.050781 Z M 147.671875 166.148438 C 147.644531 166.828125 147.625 167.511719 147.585938 168.191406 C 147.582031 168.191406 147.578125 168.191406 147.578125 168.191406 C 147.546875 168.886719 147.507812 169.578125 147.472656 170.269531 C 147.484375 170.460938 147.324219 170.453125 147.183594 170.453125 C 146.265625 170.425781 145.351562 170.359375 144.4375 170.320312 C 144.089844 170.289062 143.738281 170.320312 143.398438 170.253906 C 143.304688 170.214844 143.316406 170.082031 143.308594 169.992188 C 143.3125 168.667969 143.28125 167.339844 143.296875 166.015625 C 143.308594 165.914062 143.425781 165.90625 143.503906 165.90625 C 144.71875 165.898438 145.933594 165.902344 147.148438 165.898438 C 147.367188 165.921875 147.726562 165.804688 147.671875 166.148438 Z M 147.992188 159.894531 C 147.980469 160.191406 147.964844 160.488281 147.945312 160.78125 C 147.894531 161.933594 147.863281 163.082031 147.792969 164.234375 C 147.785156 164.386719 147.746094 164.414062 147.582031 164.421875 C 146.28125 164.425781 144.980469 164.421875 143.679688 164.425781 C 143.152344 164.457031 143.273438 164.316406 143.246094 163.886719 C 143.242188 162.523438 143.222656 161.164062 143.234375 159.800781 C 143.234375 159.738281 143.285156 159.691406 143.355469 159.691406 C 144.097656 159.671875 144.839844 159.675781 145.585938 159.675781 C 145.585938 159.671875 145.585938 159.671875 145.585938 159.667969 C 146.3125 159.671875 147.046875 159.664062 147.773438 159.671875 C 147.957031 159.683594 147.996094 159.722656 147.992188 159.894531 Z M 148.292969 154.019531 C 148.242188 155.046875 148.179688 156.070312 148.140625 157.097656 C 148.121094 157.429688 148.105469 157.765625 148.085938 158.097656 C 148.082031 158.164062 148.027344 158.21875 147.96875 158.222656 C 146.433594 158.238281 144.894531 158.234375 143.363281 158.226562 C 143.28125 158.222656 143.230469 158.167969 143.222656 158.082031 C 143.179688 156.699219 143.1875 155.308594 143.164062 153.925781 C 143.140625 153.75 143.21875 153.671875 143.390625 153.679688 C 144.179688 153.660156 144.972656 153.675781 145.765625 153.671875 C 145.765625 153.671875 145.765625 153.667969 145.765625 153.667969 C 146.496094 153.667969 147.226562 153.667969 147.957031 153.667969 C 148.308594 153.667969 148.308594 153.675781 148.292969 154.019531 Z M 148.5625 148.566406 C 148.507812 149.742188 148.457031 150.917969 148.375 152.09375 C 148.371094 152.152344 148.316406 152.195312 148.246094 152.199219 C 146.660156 152.214844 145.074219 152.203125 143.488281 152.207031 C 143.144531 152.207031 143.136719 152.207031 143.132812 151.859375 C 143.117188 150.480469 143.105469 149.105469 143.09375 147.730469 C 143.109375 147.625 143.058594 147.441406 143.207031 147.414062 C 144.085938 147.378906 144.964844 147.398438 145.847656 147.390625 C 146.714844 147.394531 147.582031 147.382812 148.449219 147.398438 C 148.554688 147.402344 148.605469 147.453125 148.601562 147.5625 C 148.589844 147.898438 148.578125 148.230469 148.5625 148.566406 Z M 153.421875 166.25 C 153.308594 167.21875 153.1875 168.1875 153.066406 169.160156 C 153.007812 169.625 152.949219 170.09375 152.890625 170.5625 C 152.886719 170.636719 152.847656 170.699219 152.777344 170.730469 C 151.617188 170.722656 150.453125 170.605469 149.289062 170.578125 C 149.167969 170.570312 148.980469 170.570312 148.984375 170.402344 C 148.984375 169.683594 149.046875 168.96875 149.074219 168.25 C 149.078125 168.25 149.082031 168.25 149.085938 168.253906 C 149.132812 167.5 149.128906 166.738281 149.203125 165.992188 C 149.242188 165.804688 150.644531 165.941406 150.910156 165.902344 C 151.640625 165.902344 152.371094 165.902344 153.101562 165.902344 C 153.464844 165.898438 153.460938 165.90625 153.421875 166.25 Z M 153.640625 164.351562 C 153.585938 164.441406 153.464844 164.425781 153.375 164.429688 C 152.121094 164.429688 150.871094 164.429688 149.617188 164.429688 C 149.265625 164.429688 149.261719 164.425781 149.277344 164.078125 C 149.3125 163.3125 149.359375 162.542969 149.394531 161.777344 C 149.453125 161.515625 149.398438 159.613281 149.609375 159.679688 C 150.363281 159.660156 151.121094 159.675781 151.878906 159.671875 C 151.878906 159.667969 151.878906 159.667969 151.878906 159.667969 C 152.632812 159.675781 153.390625 159.652344 154.144531 159.683594 C 154.183594 159.683594 154.234375 159.746094 154.234375 159.785156 C 154.066406 161.308594 153.867188 162.839844 153.640625 164.351562 Z M 149.953125 158.230469 C 149.597656 158.230469 149.597656 158.226562 149.605469 157.882812 C 149.640625 156.730469 149.742188 155.585938 149.789062 154.433594 C 149.800781 154.210938 149.824219 153.988281 149.84375 153.769531 C 149.847656 153.726562 149.898438 153.679688 149.945312 153.675781 C 150.773438 153.65625 151.601562 153.675781 152.429688 153.667969 C 152.429688 153.664062 152.429688 153.660156 152.429688 153.65625 C 153.234375 153.660156 154.039062 153.644531 154.84375 153.664062 C 154.992188 153.667969 155.027344 153.703125 155.011719 153.839844 C 154.878906 155.257812 154.625 156.660156 154.472656 158.074219 C 154.457031 158.179688 154.410156 158.21875 154.296875 158.222656 C 152.847656 158.234375 151.402344 158.226562 149.953125 158.230469 Z M 163.832031 147.535156 C 163.34375 150.332031 162.785156 153.113281 162.28125 155.90625 C 161.359375 160.738281 160.476562 165.578125 159.601562 170.417969 C 159.550781 170.65625 159.503906 171.035156 159.195312 171.046875 C 157.707031 171.050781 156.222656 170.929688 154.738281 170.878906 C 154.621094 170.855469 154.414062 170.902344 154.390625 170.742188 C 154.457031 169.78125 154.628906 168.824219 154.742188 167.867188 C 154.800781 167.398438 154.851562 166.929688 154.917969 166.464844 C 155.007812 165.808594 154.878906 165.902344 155.546875 165.902344 C 156.6875 165.898438 157.828125 165.902344 158.96875 165.902344 C 159.074219 165.890625 159.207031 165.929688 159.285156 165.847656 C 159.398438 165.417969 159.488281 164.980469 159.558594 164.539062 C 159.566406 164.492188 159.523438 164.4375 159.476562 164.4375 C 158.125 164.410156 156.773438 164.441406 155.421875 164.425781 C 155.34375 164.417969 155.21875 164.433594 155.210938 164.328125 C 155.214844 164.214844 155.210938 164.105469 155.226562 163.992188 C 155.339844 163.097656 155.460938 162.199219 155.582031 161.304688 C 155.660156 160.789062 155.699219 160.265625 155.796875 159.757812 C 155.863281 159.640625 156.019531 159.683594 156.132812 159.667969 C 157.621094 159.652344 159.109375 159.695312 160.597656 159.664062 C 160.640625 159.664062 160.691406 159.613281 160.699219 159.570312 C 160.78125 159.195312 160.859375 158.820312 160.9375 158.445312 C 160.992188 158.261719 160.84375 158.226562 160.699219 158.234375 C 160.351562 158.230469 160.003906 158.226562 159.65625 158.226562 C 158.476562 158.21875 157.300781 158.242188 156.121094 158.214844 C 156.0625 158.210938 156.011719 158.152344 156.015625 158.089844 C 156.148438 156.644531 156.371094 155.210938 156.554688 153.773438 C 156.5625 153.730469 156.613281 153.683594 156.65625 153.683594 C 158.292969 153.632812 159.929688 153.683594 161.566406 153.628906 C 161.726562 153.601562 161.695312 153.339844 161.75 153.214844 C 161.808594 152.976562 161.867188 152.734375 161.921875 152.492188 C 161.964844 152.378906 162.007812 152.203125 161.839844 152.207031 C 161.652344 152.203125 161.464844 152.203125 161.28125 152.203125 C 159.804688 152.191406 158.328125 152.21875 156.855469 152.1875 C 156.816406 152.1875 156.757812 152.125 156.761719 152.089844 C 156.890625 150.65625 157.148438 149.238281 157.304688 147.8125 C 157.34375 147.691406 157.296875 147.457031 157.449219 147.421875 C 158.515625 147.359375 159.582031 147.40625 160.648438 147.390625 C 160.648438 147.390625 160.648438 147.386719 160.648438 147.382812 C 161.679688 147.394531 162.707031 147.363281 163.734375 147.398438 C 163.796875 147.40625 163.84375 147.46875 163.832031 147.535156 Z M 163.832031 147.535156 " fill-opacity="1" fill-rule="nonzero"/></g><path fill="#414042" d="M 126.273438 182.84375 C 125.972656 182.734375 125.972656 182.734375 125.96875 182.425781 C 125.964844 182.253906 125.964844 182.078125 125.964844 181.90625 C 125.964844 181.828125 125.964844 181.714844 125.875 181.6875 C 125.246094 181.648438 124.609375 181.683594 123.980469 181.671875 C 123.980469 181.667969 123.980469 181.667969 123.980469 181.664062 C 123.472656 181.664062 122.964844 181.664062 122.457031 181.664062 C 122.296875 181.699219 121.960938 181.570312 121.953125 181.816406 C 121.949219 181.976562 121.953125 182.136719 121.949219 182.300781 C 121.945312 182.796875 122.011719 182.714844 121.523438 182.882812 C 118.53125 183.867188 116.601562 187.128906 117.140625 190.230469 C 118.496094 197.941406 129.683594 197.84375 130.824219 190.074219 C 131.289062 186.957031 129.253906 183.808594 126.273438 182.84375 Z M 120.730469 189.234375 C 120.699219 185.390625 126.304688 184.78125 127.136719 188.515625 C 127.953125 193.136719 120.964844 193.808594 120.730469 189.234375 Z M 120.730469 189.234375 " fill-opacity="1" fill-rule="nonzero"/><path fill="#414042" d="M 164.761719 182.832031 C 164.59375 182.789062 164.507812 182.6875 164.519531 182.511719 C 164.523438 182.324219 164.515625 182.136719 164.515625 181.953125 C 164.507812 181.6875 164.496094 181.671875 164.246094 181.667969 C 163.664062 181.660156 163.082031 181.664062 162.5 181.664062 C 162.5 181.660156 162.5 181.65625 162.5 181.652344 C 161.867188 181.65625 161.234375 181.640625 160.601562 181.660156 C 160.460938 181.6875 160.5 181.867188 160.484375 181.976562 C 160.480469 182.164062 160.480469 182.347656 160.476562 182.535156 C 160.46875 182.71875 160.445312 182.75 160.28125 182.800781 C 159.03125 183.164062 157.910156 183.945312 157.085938 184.945312 C 153.5 189.167969 156.789062 195.914062 162.246094 195.984375 C 167.1875 196.304688 170.890625 191.019531 168.796875 186.507812 C 168.039062 184.773438 166.546875 183.445312 164.761719 182.832031 Z M 159.289062 189.542969 C 158.953125 185.140625 165.421875 184.699219 165.703125 189.089844 C 165.710938 193.207031 159.804688 193.449219 159.289062 189.542969 Z M 159.289062 189.542969 " fill-opacity="1" fill-rule="nonzero"/><path fill="#414042" d="M 179.378906 132.316406 C 176.359375 133.132812 173.292969 133.832031 170.300781 134.738281 C 169.824219 134.972656 169.804688 135.699219 169.773438 136.167969 C 169.78125 137.089844 170.109375 137.988281 170.664062 138.722656 C 170.832031 138.90625 171.019531 139.203125 171.304688 139.175781 C 174.484375 138.390625 177.675781 137.605469 180.832031 136.714844 C 183.5 135.535156 181.910156 131.636719 179.378906 132.316406 Z M 179.378906 132.316406 " fill-opacity="1" fill-rule="nonzero"/><g clip-path="url(#7974e58cc9)"><g clip-path="url(#f9045a542b)"><g clip-path="url(#2914c46532)"><path fill="#414042" d="M 118.878906 202.046875 C 120.921875 205 124.003906 207.296875 127.113281 209.03125 C 130.3125 210.8125 133.765625 212.054688 137.355469 212.78125 C 144.644531 214.25 152.300781 213.1875 158.917969 209.804688 C 160.75 208.863281 162.507812 207.769531 164.140625 206.523438 C 164.957031 205.898438 165.753906 205.222656 166.523438 204.523438 C 167.320312 203.789062 168.15625 203.058594 168.652344 202.078125 C 169.003906 201.378906 168.058594 200.945312 167.542969 201.269531 C 166.816406 201.71875 166.265625 202.414062 165.640625 202.996094 C 164.941406 203.648438 164.230469 204.265625 163.476562 204.859375 C 162.109375 205.9375 160.675781 206.910156 159.152344 207.734375 C 156 209.472656 152.585938 210.695312 149.042969 211.324219 C 142.171875 212.542969 135.066406 211.265625 128.78125 208.308594 C 125.214844 206.621094 122.171875 204.273438 119.203125 201.683594 C 119 201.496094 118.71875 201.828125 118.878906 202.046875 Z M 118.878906 202.046875 " fill-opacity="1" fill-rule="nonzero"/></g></g></g><g clip-path="url(#abe823e7c4)"><g clip-path="url(#8edae39723)"><g clip-path="url(#dd5bd40de7)"><path fill="#414042" d="M 166.601562 200.257812 C 166.644531 200.3125 166.738281 200.621094 166.839844 200.753906 C 167.054688 201.03125 167.289062 201.261719 167.484375 201.566406 C 167.878906 202.175781 168.117188 202.808594 168.195312 203.523438 C 168.320312 204.71875 170.183594 204.441406 170.042969 203.238281 C 169.855469 201.636719 168.925781 200.359375 167.472656 199.695312 C 167.289062 199.621094 167.015625 199.664062 166.863281 199.792969 C 166.871094 199.777344 166.871094 199.757812 166.871094 199.757812 C 166.613281 199.75 166.417969 200.046875 166.601562 200.257812 Z M 166.601562 200.257812 " fill-opacity="1" fill-rule="nonzero"/></g></g></g><g clip-path="url(#c7e7795078)"><g clip-path="url(#e4c9d08dda)"><g clip-path="url(#6c813f1b7e)"><path fill="#414042" d="M 120.261719 200.976562 C 119.027344 200.554688 117.394531 201.640625 117.476562 202.980469 C 117.519531 203.574219 118.3125 203.671875 118.628906 203.265625 C 118.871094 202.960938 118.984375 202.644531 119.28125 202.402344 C 119.578125 202.160156 119.910156 202.0625 120.261719 201.9375 C 120.699219 201.777344 120.664062 201.113281 120.261719 200.976562 Z M 120.261719 200.976562 " fill-opacity="1" fill-rule="nonzero"/></g></g></g><g fill="#00bf63" fill-opacity="1"><g transform="translate(186.842222, 173.864919)"><g><path d="M 1.828125 0 L 1.828125 -41.453125 L 18.4375 -41.453125 L 18.4375 -33.453125 L 10.28125 -33.453125 L 10.28125 -25.390625 L 18.09375 -25.390625 L 18.09375 -17.5625 L 10.28125 -17.5625 L 10.28125 -8.0625 L 18.96875 -8.0625 L 18.96875 0 Z M 1.828125 0 "/></g></g></g><g fill="#00bf63" fill-opacity="1"><g transform="translate(206.729594, 173.864919)"><g><path d="M 8.109375 0.390625 C 5.367188 0.390625 3.492188 -0.515625 2.484375 -2.328125 C 1.472656 -4.148438 0.96875 -6.753906 0.96875 -10.140625 C 0.96875 -12.898438 1.328125 -15.019531 2.046875 -16.5 C 2.773438 -17.988281 3.78125 -19.078125 5.0625 -19.765625 C 6.351562 -20.453125 8.316406 -21.21875 10.953125 -22.0625 L 13.265625 -22.828125 L 13.265625 -26.453125 C 13.265625 -27.378906 13.078125 -28.09375 12.703125 -28.59375 C 12.335938 -29.09375 11.898438 -29.34375 11.390625 -29.34375 C 10.941406 -29.34375 10.546875 -29.132812 10.203125 -28.71875 C 9.867188 -28.300781 9.703125 -27.738281 9.703125 -27.03125 L 9.703125 -24.90625 L 1.5 -24.90625 L 1.5 -26.0625 C 1.5 -29.539062 2.3125 -32.019531 3.9375 -33.5 C 5.5625 -34.976562 8.207031 -35.71875 11.875 -35.71875 C 14.800781 -35.71875 17.179688 -34.953125 19.015625 -33.421875 C 20.847656 -31.890625 21.765625 -29.726562 21.765625 -26.9375 L 21.765625 0 L 13.375 0 L 13.375 -4.203125 C 12.945312 -2.753906 12.273438 -1.625 11.359375 -0.8125 C 10.441406 -0.0078125 9.359375 0.390625 8.109375 0.390625 Z M 11.4375 -6.171875 C 12.082031 -6.171875 12.539062 -6.4375 12.8125 -6.96875 C 13.082031 -7.5 13.21875 -8.148438 13.21875 -8.921875 L 13.21875 -18.78125 C 11.96875 -18.289062 11.046875 -17.675781 10.453125 -16.9375 C 9.859375 -16.195312 9.5625 -15.171875 9.5625 -13.859375 L 9.5625 -9.3125 C 9.5625 -7.21875 10.1875 -6.171875 11.4375 -6.171875 Z M 11.4375 -6.171875 "/></g></g></g><g fill="#00bf63" fill-opacity="1"><g transform="translate(230.044155, 173.864919)"><g><path d="M 11.390625 0.390625 C 4.410156 0.390625 0.921875 -3.148438 0.921875 -10.234375 L 0.96875 -13.03125 L 9.40625 -13.03125 L 9.453125 -8.875 C 9.453125 -8.039062 9.613281 -7.40625 9.9375 -6.96875 C 10.257812 -6.539062 10.789062 -6.328125 11.53125 -6.328125 C 12.65625 -6.328125 13.21875 -7.242188 13.21875 -9.078125 C 13.21875 -10.421875 12.953125 -11.476562 12.421875 -12.25 C 11.890625 -13.03125 11.046875 -13.851562 9.890625 -14.71875 L 5.40625 -18.203125 C 3.863281 -19.390625 2.753906 -20.617188 2.078125 -21.890625 C 1.398438 -23.160156 1.0625 -24.953125 1.0625 -27.265625 C 1.0625 -29.066406 1.535156 -30.601562 2.484375 -31.875 C 3.429688 -33.144531 4.691406 -34.101562 6.265625 -34.75 C 7.847656 -35.394531 9.601562 -35.71875 11.53125 -35.71875 C 18.382812 -35.71875 21.8125 -32.304688 21.8125 -25.484375 L 21.8125 -24.8125 L 13.078125 -24.8125 L 13.078125 -26.15625 C 13.078125 -27 12.941406 -27.71875 12.671875 -28.3125 C 12.398438 -28.90625 11.941406 -29.203125 11.296875 -29.203125 C 10.710938 -29.203125 10.269531 -29.03125 9.96875 -28.6875 C 9.664062 -28.351562 9.515625 -27.894531 9.515625 -27.3125 C 9.515625 -26.03125 10.007812 -25.035156 11 -24.328125 L 16.21875 -20.515625 C 18.082031 -19.128906 19.515625 -17.625 20.515625 -16 C 21.515625 -14.375 22.015625 -12.320312 22.015625 -9.84375 C 22.015625 -6.5625 21.078125 -4.035156 19.203125 -2.265625 C 17.335938 -0.492188 14.734375 0.390625 11.390625 0.390625 Z M 11.390625 0.390625 "/></g></g></g><g fill="#00bf63" fill-opacity="1"><g transform="translate(252.972549, 173.864919)"><g><path d="M 1.015625 0.53125 L 5.0625 0.53125 C 5.644531 0.53125 5.9375 0.289062 5.9375 -0.1875 C 5.9375 -0.414062 5.921875 -0.59375 5.890625 -0.71875 L 0.390625 -35.328125 L 8.453125 -35.328125 L 10.046875 -18.09375 L 10.8125 -9.3125 L 11.734375 -18.09375 L 13.609375 -35.328125 L 21.71875 -35.328125 L 15.15625 1.828125 C 14.925781 3.210938 14.460938 4.234375 13.765625 4.890625 C 13.078125 5.554688 11.992188 5.890625 10.515625 5.890625 L 1.015625 5.890625 Z M 1.015625 0.53125 "/></g></g></g><g fill="#ed6918" fill-opacity="1"><g transform="translate(189.086258, 212.525612)"><g><path d="M 1.109375 0 L 1.109375 -25.234375 L 8.8125 -25.234375 L 10.921875 -9.84375 L 13.046875 -25.234375 L 20.796875 -25.234375 L 20.796875 0 L 16.1875 0 L 16.1875 -18.1875 L 13.28125 0 L 8.75 0 L 5.671875 -18.1875 L 5.671875 0 Z M 1.109375 0 "/></g></g></g><g fill="#ed6918" fill-opacity="1"><g transform="translate(210.994151, 212.525612)"><g><path d="M 4.9375 0.234375 C 3.269531 0.234375 2.128906 -0.316406 1.515625 -1.421875 C 0.898438 -2.523438 0.59375 -4.109375 0.59375 -6.171875 C 0.59375 -7.847656 0.8125 -9.132812 1.25 -10.03125 C 1.6875 -10.9375 2.296875 -11.597656 3.078125 -12.015625 C 3.867188 -12.441406 5.066406 -12.910156 6.671875 -13.421875 L 8.078125 -13.890625 L 8.078125 -16.09375 C 8.078125 -16.664062 7.960938 -17.101562 7.734375 -17.40625 C 7.515625 -17.707031 7.25 -17.859375 6.9375 -17.859375 C 6.65625 -17.859375 6.410156 -17.726562 6.203125 -17.46875 C 6.003906 -17.21875 5.90625 -16.878906 5.90625 -16.453125 L 5.90625 -15.15625 L 0.90625 -15.15625 L 0.90625 -15.859375 C 0.90625 -17.972656 1.398438 -19.476562 2.390625 -20.375 C 3.378906 -21.28125 4.988281 -21.734375 7.21875 -21.734375 C 9.007812 -21.734375 10.460938 -21.269531 11.578125 -20.34375 C 12.691406 -19.414062 13.25 -18.097656 13.25 -16.390625 L 13.25 0 L 8.140625 0 L 8.140625 -2.5625 C 7.878906 -1.675781 7.46875 -0.988281 6.90625 -0.5 C 6.351562 -0.0078125 5.695312 0.234375 4.9375 0.234375 Z M 6.96875 -3.765625 C 7.351562 -3.765625 7.628906 -3.925781 7.796875 -4.25 C 7.960938 -4.570312 8.046875 -4.96875 8.046875 -5.4375 L 8.046875 -11.421875 C 7.285156 -11.128906 6.722656 -10.757812 6.359375 -10.3125 C 5.992188 -9.863281 5.8125 -9.238281 5.8125 -8.4375 L 5.8125 -5.671875 C 5.8125 -4.398438 6.195312 -3.765625 6.96875 -3.765625 Z M 6.96875 -3.765625 "/></g></g></g><g fill="#ed6918" fill-opacity="1"><g transform="translate(225.178483, 212.525612)"><g><path d="M 1.03125 -21.5 L 6.171875 -21.5 L 6.171875 -19.125 C 6.421875 -19.96875 6.863281 -20.617188 7.5 -21.078125 C 8.132812 -21.535156 8.925781 -21.765625 9.875 -21.765625 L 9.875 -17.484375 C 9.144531 -17.484375 8.34375 -17.378906 7.46875 -17.171875 C 6.601562 -16.960938 6.171875 -16.722656 6.171875 -16.453125 L 6.171875 0 L 1.03125 0 Z M 1.03125 -21.5 "/></g></g></g><g fill="#ed6918" fill-opacity="1"><g transform="translate(235.280778, 212.525612)"><g><path d="M 1.03125 0 L 1.03125 -25.375 L 6.109375 -25.375 L 6.109375 -14.09375 L 8.578125 -21.5 L 13.890625 -21.5 L 10.65625 -12.15625 L 14.78125 0 L 9.3125 0 L 6.109375 -10.140625 L 6.109375 0 Z M 1.03125 0 "/></g></g></g><g fill="#ed6918" fill-opacity="1"><g transform="translate(249.700047, 212.525612)"><g><path d="M 7.046875 0.234375 C 4.835938 0.234375 3.253906 -0.367188 2.296875 -1.578125 C 1.335938 -2.796875 0.859375 -4.609375 0.859375 -7.015625 L 0.859375 -15.65625 C 0.859375 -17.632812 1.425781 -19.140625 2.5625 -20.171875 C 3.695312 -21.210938 5.28125 -21.734375 7.3125 -21.734375 C 11.445312 -21.734375 13.515625 -19.707031 13.515625 -15.65625 L 13.515625 -14.09375 C 13.515625 -12.53125 13.492188 -11.257812 13.453125 -10.28125 L 6 -10.28125 L 6 -6.109375 C 6 -5.367188 6.078125 -4.785156 6.234375 -4.359375 C 6.390625 -3.941406 6.71875 -3.734375 7.21875 -3.734375 C 7.613281 -3.734375 7.894531 -3.847656 8.0625 -4.078125 C 8.226562 -4.316406 8.328125 -4.585938 8.359375 -4.890625 C 8.390625 -5.191406 8.40625 -5.640625 8.40625 -6.234375 L 8.40625 -8.3125 L 13.515625 -8.3125 L 13.515625 -7.078125 C 13.515625 -4.566406 13.03125 -2.71875 12.0625 -1.53125 C 11.09375 -0.351562 9.421875 0.234375 7.046875 0.234375 Z M 8.40625 -12.84375 L 8.40625 -15.59375 C 8.40625 -17.144531 8.019531 -17.921875 7.25 -17.921875 C 6.394531 -17.921875 5.96875 -17.144531 5.96875 -15.59375 L 5.96875 -12.84375 Z M 8.40625 -12.84375 "/></g></g></g><g fill="#ed6918" fill-opacity="1"><g transform="translate(264.031219, 212.525612)"><g><path d="M 5.46875 0.234375 C 4.113281 0.234375 3.179688 -0.046875 2.671875 -0.609375 C 2.160156 -1.179688 1.90625 -2.09375 1.90625 -3.34375 L 1.90625 -16.765625 L 0.46875 -16.765625 L 0.46875 -20.6875 L 1.90625 -20.6875 L 1.90625 -25.234375 L 6.90625 -25.234375 L 6.90625 -20.6875 L 8.375 -20.6875 L 8.375 -16.765625 L 6.90625 -16.765625 L 6.90625 -4.703125 C 6.90625 -4.328125 6.929688 -4.050781 6.984375 -3.875 C 7.046875 -3.695312 7.207031 -3.609375 7.46875 -3.609375 C 7.65625 -3.609375 7.835938 -3.617188 8.015625 -3.640625 C 8.191406 -3.660156 8.3125 -3.671875 8.375 -3.671875 L 8.375 -0.140625 C 8.082031 -0.0664062 7.65625 0.0078125 7.09375 0.09375 C 6.53125 0.1875 5.988281 0.234375 5.46875 0.234375 Z M 5.46875 0.234375 "/></g></g></g></svg>